<svg xmlns="http://www.w3.org/2000/svg" xmlns:xlink="http://www.w3.org/1999/xlink" width="64" height="64"><defs><linearGradient id="a"><stop offset="0" style="stop-color:#ffe052;stop-opacity:1"/><stop offset="1" style="stop-color:#ffc331;stop-opacity:1"/></linearGradient><linearGradient id="b"><stop offset="0" style="stop-color:#366994;stop-opacity:1"/><stop offset="1" style="stop-color:#387eb8;stop-opacity:1"/></linearGradient><linearGradient xlink:href="#a" id="c" x1="48.95" x2="71.44" y1="251.4" y2="227.5" gradientUnits="userSpaceOnUse"/><linearGradient xlink:href="#b" id="f" x1="50.27" x2="71.44" y1="250" y2="228.9" gradientUnits="userSpaceOnUse"/><linearGradient xlink:href="#b" id="h" x1="68.79" x2="93.93" y1="273.8" y2="248.7" gradientUnits="userSpaceOnUse"/><linearGradient xlink:href="#b" id="g" x1="46.3" x2="68.79" y1="248.7" y2="223.6" gradientUnits="userSpaceOnUse"/><linearGradient xlink:href="#a" id="d" x1="44.98" x2="67.47" y1="247.4" y2="223.6" gradientUnits="userSpaceOnUse"/><linearGradient xlink:href="#a" id="e" x1="70.11" x2="93.93" y1="272.5" y2="248.7" gradientUnits="userSpaceOnUse"/></defs><g style="stroke:url(#c)" transform="translate(-3.089 -149.6)scale(.7799)"><path d="M39.69 236.8v-7.9c0-14.6 21.16-14.6 21.16-1.4v13.3l11.91 11.9" style="fill:none;stroke:url(#d);stroke-width:8;stroke-linecap:round;stroke-linejoin:round;stroke-miterlimit:4;stroke-dasharray:none"/><path d="m80.7 260.6 1.32 1.3" style="fill:none;stroke:url(#e);stroke-width:8;stroke-linecap:round;stroke-linejoin:round;stroke-miterlimit:4;stroke-dasharray:none"/></g><g style="fill:none;fill-opacity:1;stroke:url(#f);stroke-width:8;stroke-miterlimit:4;stroke-dasharray:none" transform="rotate(180 33.544 106.8)scale(.7799)"><path d="M39.69 236.8v-7.9c0-14.6 21.16-14.6 21.16-1.4v13.3l11.91 11.9" style="fill-opacity:1;stroke:url(#g);stroke-width:8;stroke-linecap:round;stroke-linejoin:round;stroke-miterlimit:4;stroke-dasharray:none"/><path d="m80.7 260.6 1.32 1.3" style="fill-opacity:1;stroke:url(#h);stroke-width:8;stroke-linecap:round;stroke-linejoin:round;stroke-miterlimit:4;stroke-dasharray:none"/></g></svg>